<svg width="105" height="26" viewBox="0 0 105 26" fill="none" xmlns="http://www.w3.org/2000/svg">
<path d="M28.2597 24.2958C30.5762 26.6114 34.366 26.5567 36.613 24.1331C38.6563 21.9293 38.6563 18.4689 36.613 16.2651C34.366 13.8414 30.5762 13.7868 28.2597 16.1024L24.4103 19.9501C24.2724 20.088 24.2724 20.3102 24.4103 20.448L28.2597 24.2958Z" fill="#D0C5FB"/>
<path d="M25.887 15.3125C28.2036 12.9969 28.1489 9.20873 25.7243 6.96266C23.5195 4.92021 20.0577 4.92021 17.8529 6.96266C15.4283 9.20873 15.3736 12.9969 17.6902 15.3125L21.5396 19.1602C21.6774 19.298 21.8998 19.298 22.0377 19.1602L25.887 15.3125Z" fill="#EFE669"/>
<path d="M15.3192 24.2958C13.0026 26.6114 9.21284 26.5567 6.96583 24.1331C4.92252 21.9293 4.92252 18.4689 6.96583 16.2651C9.21284 13.8414 13.0026 13.7868 15.3192 16.1024L19.1685 19.9501C19.3064 20.088 19.3064 20.3102 19.1685 20.448L15.3192 24.2958Z" fill="#00D1C6"/>
<path d="M21.7895 3.84154C22.8508 3.84154 23.7111 2.98158 23.7111 1.92077C23.7111 0.859957 22.8508 0 21.7895 0C20.7282 0 19.8679 0.859957 19.8679 1.92077C19.8679 2.98158 20.7282 3.84154 21.7895 3.84154Z" fill="#EFE669"/>
<path d="M41.5012 22.119C42.5624 22.119 43.4227 21.259 43.4227 20.1982C43.4227 19.1374 42.5624 18.2775 41.5012 18.2775C40.4399 18.2775 39.5796 19.1374 39.5796 20.1982C39.5796 21.259 40.4399 22.119 41.5012 22.119Z" fill="#D0C5FB"/>
<path d="M1.92158 22.119C2.98283 22.119 3.84315 21.259 3.84315 20.1982C3.84315 19.1374 2.98283 18.2775 1.92158 18.2775C0.860319 18.2775 0 19.1374 0 20.1982C0 21.259 0.860319 22.119 1.92158 22.119Z" fill="#00D1C6"/>
<path d="M60.7522 19.2624C60.7522 19.6051 60.619 19.8933 60.3512 20.1258C60.0835 20.3583 59.8 20.4746 59.4984 20.4746C59.1422 20.4746 58.8406 20.3377 58.5946 20.064L54.8949 16.16L53.8882 17.0839V19.2418C53.8882 19.5978 53.7719 19.8957 53.5393 20.1355C53.3067 20.3753 53.0111 20.4951 52.6549 20.4951C52.2987 20.4951 52.0043 20.3753 51.7717 20.1355C51.5379 19.8957 51.4229 19.5978 51.4229 19.2418V6.54509C51.4229 6.18907 51.5392 5.89118 51.7717 5.65141C52.0043 5.41165 52.2987 5.29176 52.6549 5.29176C53.0111 5.29176 53.3054 5.41165 53.5393 5.65141C53.7719 5.89118 53.8882 6.18907 53.8882 6.54509V14.1474L58.2869 9.89456C58.5474 9.6342 58.849 9.50463 59.1919 9.50463C59.4935 9.50463 59.7637 9.63178 60.0036 9.88487C60.2434 10.138 60.3634 10.3959 60.3634 10.655C60.3634 10.9832 60.1986 11.292 59.8703 11.579L56.7666 14.4344L60.3634 18.3385C60.6226 18.6121 60.7522 18.9209 60.7522 19.2624Z" fill="#2E3333"/>
<path d="M71.9354 15.5434C71.6882 15.7493 71.4011 15.8522 71.0716 15.8522H64.2887C64.4535 16.6599 64.8302 17.2944 65.419 17.7522C66.0077 18.2111 66.6728 18.44 67.413 18.44C67.9751 18.44 68.4125 18.3891 68.7287 18.2862C69.0436 18.1833 69.2944 18.0743 69.4785 17.958C69.6639 17.8418 69.7899 17.7631 69.8589 17.7219C70.1061 17.5984 70.3387 17.5366 70.558 17.5366C70.8463 17.5366 71.0922 17.6396 71.2981 17.8454C71.5041 18.0513 71.6071 18.2911 71.6071 18.5647C71.6071 18.9341 71.4144 19.2707 71.0316 19.571C70.6476 19.8859 70.1339 20.1535 69.4895 20.3727C68.845 20.5918 68.1944 20.7008 67.5366 20.7008C66.3857 20.7008 65.3814 20.4611 64.5249 19.9815C63.6684 19.502 63.007 18.8408 62.5418 17.9992C62.0754 17.1564 61.8428 16.2082 61.8428 15.1535C61.8428 13.9753 62.0899 12.9411 62.583 12.0511C63.076 11.161 63.7266 10.4793 64.5358 10.007C65.3439 9.53473 66.2076 9.2986 67.1259 9.2986C68.0309 9.2986 68.8837 9.54563 69.6845 10.0385C70.4865 10.5313 71.1261 11.1961 71.6071 12.0317C72.0868 12.8672 72.3267 13.7718 72.3267 14.7442C72.3109 15.0712 72.1813 15.3388 71.9354 15.5434ZM64.3093 13.7972H69.6942V13.6531C69.6397 13.078 69.3586 12.5851 68.851 12.1734C68.3434 11.7629 67.768 11.557 67.1247 11.557C65.5353 11.5582 64.5964 12.3042 64.3093 13.7972Z" fill="#2E3333"/>
<path d="M76.6926 20.1357C76.4528 20.3755 76.1548 20.4954 75.7986 20.4954C75.4558 20.4954 75.1686 20.3755 74.936 20.1357C74.7022 19.8959 74.5859 19.598 74.5859 19.242V6.5453C74.5859 6.18929 74.7059 5.89139 74.9457 5.65163C75.1856 5.41186 75.4836 5.29198 75.8398 5.29198C76.1826 5.29198 76.4697 5.41186 76.7023 5.65163C76.9362 5.89139 77.0512 6.18929 77.0512 6.5453V19.2432C77.0524 19.5993 76.9325 19.8971 76.6926 20.1357Z" fill="#2E3333"/>
<path d="M80.012 7.94146C79.8205 7.7913 79.7236 7.52368 79.7236 7.13981V6.74868C79.7236 6.36602 79.8266 6.0984 80.0326 5.94703C80.2385 5.79688 80.5668 5.72059 81.0187 5.72059C81.4984 5.72059 81.834 5.79567 82.0266 5.94703C82.218 6.0984 82.3149 6.36481 82.3149 6.74868V7.13981C82.3149 7.537 82.2156 7.80704 82.0169 7.95114C81.8182 8.09524 81.479 8.16669 80.9993 8.16669C80.5329 8.1679 80.2046 8.09282 80.012 7.94146ZM81.903 20.1356C81.6704 20.3754 81.3748 20.4953 81.0187 20.4953C80.6625 20.4953 80.3681 20.3754 80.1355 20.1356C79.9017 19.8959 79.7866 19.598 79.7866 19.242V10.7569C79.7866 10.4009 79.9029 10.103 80.1355 9.86322C80.3681 9.62345 80.6625 9.50357 81.0187 9.50357C81.3748 9.50357 81.6692 9.62345 81.903 9.86322C82.1356 10.103 82.2519 10.4009 82.2519 10.7569V19.242C82.2531 19.5992 82.1368 19.8971 81.903 20.1356Z" fill="#2E3333"/>
<path d="M92.3859 9.84226C93.0982 10.2055 93.4544 10.6875 93.4544 11.2905C93.4544 11.5921 93.3648 11.8561 93.1867 12.0813C93.0086 12.3077 92.776 12.4204 92.4877 12.4204C92.2684 12.4204 92.0903 12.3889 91.9534 12.3283C91.8165 12.2666 91.6833 12.1842 91.5524 12.0813C91.4216 11.9784 91.2956 11.8936 91.172 11.8246C91.0351 11.7556 90.8328 11.695 90.5663 11.6393C90.2986 11.5848 90.0829 11.557 89.9182 11.557C88.8909 11.557 88.0853 11.8754 87.5025 12.5124C86.9198 13.1493 86.6291 13.9813 86.6291 15.0081C86.6291 15.9938 86.9235 16.8124 87.5135 17.4639C88.1022 18.1154 88.8557 18.44 89.774 18.44C90.4452 18.44 90.9455 18.3576 91.2738 18.1929C91.3562 18.1517 91.4688 18.0803 91.613 17.9774C91.7572 17.8744 91.8904 17.7957 92.014 17.7412C92.1376 17.6867 92.2878 17.6589 92.4659 17.6589C92.8087 17.6589 93.0789 17.7691 93.2775 17.9871C93.4762 18.2062 93.5755 18.4872 93.5755 18.8299C93.5755 19.158 93.3841 19.4668 93.0001 19.755C92.6161 20.0432 92.1085 20.2721 91.4785 20.4428C90.8486 20.6136 90.1762 20.6996 89.4639 20.6996C88.4087 20.6996 87.4807 20.4525 86.6788 19.9597C85.8768 19.4668 85.2565 18.7851 84.818 17.9156C84.3794 17.0462 84.1602 16.0762 84.1602 15.0081C84.1602 13.8989 84.3891 12.912 84.8483 12.0498C85.3074 11.1864 85.9483 10.5119 86.7696 10.0263C87.5922 9.54074 88.5238 9.29734 89.5656 9.29734C90.7347 9.29734 91.6736 9.47898 92.3859 9.84226Z" fill="#2E3333"/>
<path d="M104.904 19.2626C104.904 19.6053 104.771 19.8935 104.503 20.126C104.235 20.3585 103.952 20.4748 103.65 20.4748C103.294 20.4748 102.992 20.3379 102.745 20.0643L99.0455 16.1602L98.0376 17.0841V19.242C98.0376 19.598 97.9213 19.8959 97.6887 20.1357C97.4561 20.3755 97.1605 20.4954 96.8055 20.4954C96.4494 20.4954 96.1538 20.3755 95.9212 20.1357C95.6874 19.8959 95.5723 19.598 95.5723 19.242V6.5453C95.5723 6.18929 95.6886 5.89139 95.9212 5.65163C96.1538 5.41186 96.4481 5.29198 96.8055 5.29198C97.1617 5.29198 97.4561 5.41186 97.6887 5.65163C97.9213 5.89139 98.0376 6.18929 98.0376 6.5453V14.1476L102.436 9.89477C102.697 9.63442 102.998 9.50484 103.341 9.50484C103.643 9.50484 103.913 9.63199 104.153 9.88508C104.393 10.1382 104.513 10.3961 104.513 10.6552C104.513 10.9834 104.348 11.2922 104.02 11.5792L100.916 14.4346L104.513 18.3387C104.774 18.6123 104.904 18.9211 104.904 19.2626Z" fill="#2E3333"/>
</svg>
